<?xml version="1.0" encoding="UTF-8" standalone="no"?>
<svg
   xmlns:dc="http://purl.org/dc/elements/1.1/"
   xmlns:cc="http://creativecommons.org/ns#"
   xmlns:rdf="http://www.w3.org/1999/02/22-rdf-syntax-ns#"
   xmlns:svg="http://www.w3.org/2000/svg"
   xmlns="http://www.w3.org/2000/svg"
   xmlns:sodipodi="http://sodipodi.sourceforge.net/DTD/sodipodi-0.dtd"
   xmlns:inkscape="http://www.inkscape.org/namespaces/inkscape"
   width="200mm"
   height="200mm"
   viewBox="10 20 200 200"
   version="1.1"
   id="svg8"
   inkscape:version="1.0.1 (3bc2e813f5, 2020-09-07)"
   sodipodi:docname="leds-logo.svg">
  <defs
     id="defs2" />
  <sodipodi:namedview
     id="base"
     pagecolor="#ffffff"
     bordercolor="#666666"
     borderopacity="1.0"
     inkscape:pageopacity="0.0"
     inkscape:pageshadow="2"
     inkscape:zoom="0.98994949"
     inkscape:cx="388.89862"
     inkscape:cy="536.44133"
     inkscape:document-units="mm"
     inkscape:current-layer="layer1"
     inkscape:document-rotation="0"
     showgrid="false"
     inkscape:window-width="1360"
     inkscape:window-height="745"
     inkscape:window-x="1432"
     inkscape:window-y="-8"
     inkscape:window-maximized="1" />
  <metadata
     id="metadata5">
    <rdf:RDF>
      <cc:Work
         rdf:about="">
        <dc:format>image/svg+xml</dc:format>
        <dc:type
           rdf:resource="http://purl.org/dc/dcmitype/StillImage" />
        <dc:title></dc:title>
      </cc:Work>
    </rdf:RDF>
  </metadata>
  <g
     inkscape:label="Layer 1"
     inkscape:groupmode="layer"
     id="layer1">
    <path
       style="fill:none;stroke:#000000;stroke-width:0.264583px;stroke-linecap:butt;stroke-linejoin:miter;stroke-opacity:1"
       d="m 114.12409,164.9053 4.27631,36.08138 39.82316,-46.5049 -25.12334,-46.23762 31.27054,-22.183373 -60.93745,-12.561668 -32.072347,48.108511 -35.814116,-17.37252 18.174327,58.26476 z"
       id="path200" />
    <path
       style="fill:none;stroke:#000000;stroke-width:0.264583px;stroke-linecap:butt;stroke-linejoin:miter;stroke-opacity:1"
       d="m 114.12409,164.9053 -6.94901,-33.67596 25.92514,-22.98518"
       id="path202" />
    <path
       style="fill:none;stroke:#000000;stroke-width:0.264583px;stroke-linecap:butt;stroke-linejoin:miter;stroke-opacity:1"
       d="M 107.17508,131.22934 71.360963,121.60763"
       id="path204" />
    <path
       style="fill:#263b8a;fill-opacity:1;stroke-width:1.01015"
       d="M 306.01428,617.40178 203.87927,613.28408 170.24028,505.40737 C 151.73883,446.07518 136.79166,397.3403 137.02433,397.10762 c 0.23268,-0.23267 30.19302,13.99814 66.57855,31.62403 l 66.1555,32.04707 67.22023,18.0236 67.22024,18.0236 12.50381,60.71888 c 6.87709,33.39539 12.70557,61.51438 12.95217,62.48665 0.40804,1.60881 -0.53872,1.75519 -10.5286,1.62791 -6.03733,-0.077 -56.9377,-1.99284 -113.11195,-4.25758 z"
       id="path206"
       transform="scale(0.26458333)" />
    <path
       style="fill:#459a16;fill-opacity:1;stroke-width:1.01015"
       d="m 342.99444,478.31626 c -32.50166,-8.79184 -61.90756,-16.74068 -65.34645,-17.66407 l -6.25253,-1.67889 59.6728,-89.55536 c 32.82005,-49.25545 59.84843,-89.75372 60.06307,-89.99617 0.48756,-0.55071 224.83229,45.49752 225.85561,46.35835 0.41043,0.34526 -25.2727,19.08848 -57.07362,41.65161 l -57.81986,41.02386 -48.48732,43.0242 c -26.66803,23.66332 -49.16917,42.97864 -50.00255,42.92293 -0.83338,-0.0557 -28.1075,-7.2946 -60.60915,-16.08646 z"
       id="path208"
       transform="scale(0.26458333)" />
    <path
       style="fill:#cf2020;fill-opacity:1;stroke-width:1.01015"
       d="m 448.0503,756.27733 c 0,-0.9305 -14.75714,-126.13542 -15.55247,-131.95273 -0.22787,-1.66675 -6.15261,-30.75541 -13.16608,-64.64146 -7.01347,-33.88606 -12.62596,-62.15637 -12.4722,-62.82292 0.29207,-1.26609 94.5464,-85.17273 95.67656,-85.17273 0.3558,0 21.67745,38.689 47.38144,85.97555 41.39808,76.15834 46.57157,86.16456 45.30744,87.63073 -0.78489,0.91035 -34.22029,39.96519 -74.30088,86.78854 -40.0806,46.82334 -72.87381,84.7111 -72.87381,84.19502 z"
       id="path210"
       transform="scale(0.26458333)" />
  </g>
</svg>
